<?xml version="1.0" encoding="UTF-8"?> <svg xmlns="http://www.w3.org/2000/svg" viewBox="0 0 1000 267"><g transform="translate(-.606 -.143)"><svg xmlns="http://www.w3.org/2000/svg" xmlns:xlink="http://www.w3.org/1999/xlink" width="1000" height="267" data-background-color="#31c48d" viewBox="0 0 396 106"><g transform="translate(.24 .057)"><svg width="395.52" height="105.886" viewBox="0 0 395.52 105.886"><g><svg width="395.52" height="105.886" viewBox="0 0 395.52 105.886"><g><svg width="395.52" height="105.886" viewBox="0 0 395.52 105.886"><g><svg width="395.52" height="105.886" viewBox="0 0 395.52 105.886"><g><svg width="395.52" height="105.886" viewBox="0 0 395.52 105.886"><path fill="#31c48d" d="M0 0h395.52v105.886H0z" data-fill-palette-color="tertiary"></path><g transform="translate(23.608 23.608)"><svg width="348.305" height="58.671" data-palette-color="#ffffff" viewBox="1.8 -36.35 219.94 37.05"><path fill="#fff" d="M13.6.7Q6.45.7 3.7-2.4 1.8-4.6 1.8-8.55q0-1.7.35-3.65L4.2-23.7q2.25-12.65 16.25-12.65 5.8 0 8.8 2.47 3 2.48 3 6.78 0 2-.57 3.97-.58 1.98-1.13 2.93l-.55 1h-8.85q1.65-1.9 1.65-5.4 0-1.85-.95-2.93-.95-1.07-2.8-1.07-5.05 0-6 5.6L11.3-12.9q-.25 1.3-.25 2.55 0 3.3 3.95 3.3 4.75 0 5.7-5.35h9l-.25 1.45Q27.45.7 13.6.7ZM60.2 0h-9.5l.3-7.85h-8.35L40.2 0h-9.55L43.5-36H60l.2 36Zm-8.4-27.25h-3.15l-3.95 12.7h6.55l.55-12.7Zm22.35 17q0 3.45 4.97 3.45t4.97-3.1q0-1.65-1.69-2.7-1.7-1.05-4.13-1.75-2.43-.7-4.85-1.63-2.42-.92-4.12-2.9-1.71-1.97-1.71-4.92 0-12.55 16.16-12.55 5.9 0 8.92 2.22 3.03 2.23 3.03 6.18 0 1.45-.38 2.77-.37 1.33-.77 1.88l-.4.6H85.3q1.1-1.15 1.1-2.9 0-3.25-4.25-3.25-5.35 0-5.35 3.4 0 1.7 1.7 2.7 1.7 1 4.12 1.57 2.43.58 4.88 1.43 2.45.85 4.15 2.82 1.69 1.98 1.69 5.13 0 6.35-3.79 9.42Q85.75.7 77.84.7q-7.89 0-10.79-2.8-2.15-2.1-2.15-5.8 0-1.4.3-3.05l.14-.8h9l-.09.6q-.1.5-.1.9ZM134.04-36l-1.4 7.8h-12.3L115.39 0h-9.05l4.95-28.2H98.94l1.4-7.8h33.7Zm4.1 0h14.5q5.7 0 8.1 2.5 1.8 1.9 1.8 4.8 0 1-.2 2.1l-.7 3.9q-.6 3.25-2.08 5.25-1.47 2-3.27 2.85L160.84 0h-10.1l-4.2-13.45h-3.1L141.39 0h-9.6l6.35-36Zm11.35 7.8h-3.75l-1.3 8.7h3.5q2.65 0 3.8-1.28 1.15-1.27 1.15-3.37 0-4.05-3.4-4.05Zm34.3-8.15q12.05 0 12.05 9.85 0 1.65-.35 3.55l-1.75 10q-1.2 6.95-5.2 10.3-4 3.35-11.25 3.35t-10.1-3.35q-1.95-2.3-1.95-6.35 0-1.8.4-3.95l1.75-10q2.35-13.4 16.4-13.4Zm-5.15 29.3q2.5 0 4-1.3t2.1-4.8l1.7-9.6q.15-1 .15-1.8 0-4.05-4.1-4.05-5.15.1-6.15 5.85l-1.7 9.6q-.2 1.25-.2 2.6 0 3.5 4.2 3.5Zm43.1-.75-1.4 7.8h-22.8l6.35-36h9l-4.95 28.2h13.8Z" class="wordmark-text-0" data-fill-palette-color="quaternary"></path></svg></g></svg></g></svg></g></svg></g></svg></g></svg></g></svg></g></svg> 