<svg xmlns="http://www.w3.org/2000/svg" xml:space="preserve" id="Layer_1" x="0" y="0" style="enable-background:new 0 0 1000 505" viewBox="0 0 1000 505"><style>.st0{fill:#fff}</style><path d="m51.6 238.6 80.3 21.9c29.6 8.1 50.1 22.5 61.4 43.2 11.3 20.8 12.8 46.2 4.6 76.4-8.2 30.2-22.5 51.4-42.7 63.5-20.3 12.2-45.2 14.2-74.8 6.1L.1 427.9l51.5-189.3zm7.9 165.5 26.1 7.1c16.1 4.4 29.1 2.7 39.1-4.9 10-7.6 17.6-20.9 22.7-39.9 5.2-18.9 5.4-34.2.6-45.8-4.7-11.7-15.1-19.7-31.2-24.1l-26.1-7.1-31.2 114.7zm188.3 80.6-51-6.5L290 292.3l60.7 7.7L394 503.3l-52.1-6.6-22.1-129.9-4.7-31.8-.6-.1-11.8 29.4-54.9 120.4zm107.3-31-108.2-13.8 4.4-34.5 108.2 13.8-4.4 34.5zm190.2-145.4 52 .2-69.7 124.3-.3 71.6-51.2-.2.3-71.6-68.8-124.8 52.9.2 27.4 53.9 14.5 32.8 15-32.7 27.9-53.7zm203.2 109.5 47.6 7.6c-2.2 14-6.9 25.9-14.1 35.6-7.1 9.6-16.5 17.4-27.3 22.6-10.9 5.4-23.3 8.9-37.1 10.5-19.7 2.3-37.2.3-52.5-6-15.3-6.3-27.6-16.5-37-30.5-9.4-14.1-15.4-31.7-17.8-52.7-2.4-21.1-.7-39.5 5.3-55.4 5.9-15.9 15.6-28.6 29-38.3s29.9-15.6 49.4-17.9c13.6-1.6 26.4-1.1 38.2 1.4 11.9 2.5 22.2 7.3 30.9 14.3 8.8 6.9 15.6 16.4 20.4 28.4L741 360.6c-4.2-11.9-9.6-19.7-16.3-23.6-6.7-3.8-14.8-5.2-24.3-4.1-9.3 1.1-17 4.3-23.3 9.6-6.2 5.3-10.7 12.6-13.3 22-2.6 9.4-3.1 20.8-1.6 34.2 1.5 13.2 4.5 24.2 8.9 32.8 4.4 8.7 10.2 14.9 17.6 18.6 7.3 3.7 16 5 26 3.9 9.5-1.1 17.2-4.7 23.1-10.7 6.1-5.9 9.6-14.4 10.7-25.5zm128.1-160.2c19.2-4.8 36.8-5.1 52.7-.8 15.9 4.3 29.4 12.8 40.6 25.6 11.2 12.7 19.3 29.4 24.5 49.9 5.1 20.6 5.8 39.1 1.9 55.6s-11.8 30.3-23.8 41.6-27.6 19.3-46.8 24.1c-19.2 4.8-36.8 5.1-52.8.8s-29.5-12.8-40.7-25.5c-11.2-12.8-19.3-29.4-24.5-50-5.1-20.6-5.8-39.1-1.9-55.6 3.8-16.5 11.8-30.4 23.9-41.7 12-11.1 27.7-19.2 46.9-24zm9.7 39c-9.2 2.3-16.4 6.5-21.7 12.5-5.2 6-8.4 13.8-9.4 23.3-1.1 9.6 0 20.9 3.3 34 3.2 12.9 7.6 23.4 13.1 31.4s11.9 13.5 19.4 16.3c7.5 2.8 15.8 3.1 25 .8s16.4-6.5 21.6-12.4c5.2-6 8.3-13.8 9.3-23.5 1.1-9.7 0-20.9-3.2-33.9-3.3-13.1-7.6-23.6-13.1-31.5-5.4-7.9-11.8-13.3-19.2-16.2-7.5-2.8-15.8-3.1-25.1-.8zM696.9 0H505.6c-61.3 0-111.1 48.5-111.1 108v9.3h61.7V108c0-25.5 22.2-46.3 49.4-46.3h191.3c27.2 0 49.4 22.2 49.4 49.4 0 27.8-14.9 49.4-27.8 49.4h-58.6c-17 0-30.9 13.8-30.9 30.9 0 17 13.8 30.9 30.9 30.9h58.6c49.3 0 89.5-49.8 89.5-111.1S758.1 0 696.9 0z" class="st0"></path><path d="M542.6 114.2c0 25.5-22.2 46.3-49.4 46.3H301.9c-27.2 0-49.4-22.2-49.4-49.4 0-27.8 14.9-49.4 27.8-49.4h58.6c17 0 30.9-13.8 30.9-30.9S356 0 338.9 0h-58.6c-49.3 0-89.5 49.8-89.5 111.1s49.8 111.1 111.1 111.1h191.3c61.3 0 111.1-48.5 111.1-108v-9.3h-61.7v9.3z" class="st0"></path></svg>