<?xml version="1.0" encoding="UTF-8"?> <svg xmlns="http://www.w3.org/2000/svg" viewBox="0 0 1000 1029"><g transform="translate(1.004 .417)"><svg xmlns="http://www.w3.org/2000/svg" xmlns:xlink="http://www.w3.org/1999/xlink" width="1000" height="1029" data-background-color="#ffffff" viewBox="0 0 240 247"><g transform="translate(-.241 -.1)"><svg width="240.482" height="247.2" viewBox="0 0 240.482 247.2"><g><svg></svg></g><g><svg width="240.482" height="247.2" viewBox="0 0 240.482 247.2"><g transform="translate(0 47.215)"><svg width="240.482" height="152.77" viewBox="0 0 240.482 152.77"><g><svg width="240.482" height="152.77" viewBox="0 0 240.482 152.77"><g><svg width="240.482" height="152.77" viewBox="0 0 240.482 152.77"><g><svg width="240.482" height="152.77" viewBox="0 0 240.482 152.77"><g><svg width="240.482" height="152.77" viewBox="0 0 240.482 152.77"><g><svg width="240.482" height="152.77" viewBox="0 0 240.482 152.77"><g><svg width="240.482" height="152.77" data-palette-color="#ea3c12" viewBox="2.86 -35.94 58.56 37.21"><path fill="#ea3c12" d="M8.62 1.27H4.17q-.26-.05-.39-.27-.12-.22-.12-.49 0-.22.1-.39l3-5.74q.03-.09.09-.75t.13-1.65q.08-.99.16-2.21l.18-2.42.19-2.28q.08-1.09.16-1.82.02-.29.07-.89.05-.6.1-1.38.05-.78.12-1.68.07-.91.15-1.81l.34-5.1q-.66.14-1.37.3-.71.16-1.38.28-.67.13-1.27.21-.6.09-1.04.09-.26 0-.4-.25-.13-.24-.13-.51 0-.32.14-.46l6.2-5.79q.76-.68 1.51-1.11.74-.43 1.79-.67 1.05-.25 2.58-.33 1.52-.09 3.87-.09 4 0 7.1.83 3.1.83 5.25 2.37 1.59 1.1 2.83 2.3 1.25 1.19 2.1 2.64.85 1.46 1.29 3.2.44 1.75.44 3.95 0 4.17-1.24 7.42-1.25 3.24-3.39 5.67-2.15 2.43-5.02 4.12-2.87 1.68-6.13 2.73T15.44.81q-3.48.46-6.82.46Zm9.74-29.4-.29 2.96q-.15 1.54-.31 3.28-.16 1.75-.3 3.54-.15 1.8-.3 3.54-.14 1.75-.27 3.26-.12 1.52-.22 2.71-.09 1.2-.17 1.91l-.07.73q2.95 0 4.99-.95 2.04-.96 3.31-2.63t1.84-3.92q.58-2.24.58-4.83 0-1.86-.51-3.58-.52-1.72-1.49-3.28-.98-1.56-2.4-2.34-1.41-.79-3.19-.79-.3 0-.64.14-.34.13-.56.25Zm39.96 9.31h-4.54q-.34 2.56-.65 5.11-.3 2.55-.37 4.77 0 .96.14 1.59.15.64.43 1 .28.37.67.53.39.16.88.16.78 0 1.71-.24.93-.23 1.85-.59.3-.13.51-.19.2-.06.35-.06.24 0 .33.22.08.22.17.77.09.55.26 1.48.17.93.56 2.34.02.12.03.21.02.08.02.16 0 .34-.26.49-.26.14-.84.34-1 .34-2.11.69-1.11.36-2.2.65-1.09.29-2.09.48-1 .18-1.76.18-4.07 0-5.94-2.03-1.87-2.02-1.87-6.17 0-.71.05-1.46.05-.74.12-1.55.25-2.44.43-4.62.18-2.19.38-4.19h-2.57q-1.31 0-1.9-.11-.59-.11-.59-.45 0-.1.25-.53.24-.42.62-1.02.38-.6.82-1.28.44-.69.84-1.29l.7-1.03q.29-.44.36-.54h1.74q.22-1.86.35-3.11.13-1.26.22-2.09.09-.83.16-1.28.07-.45.16-.67.08-.22.22-.28.13-.07.35-.11 1.1-.22 2.13-.41 1.02-.18 2.05-.38 1.02-.19 2.08-.45 1.07-.25 2.21-.6.08 0 .1-.01.02-.01.1-.01.29 0 .29.2v.04q-.12 1.35-.38 3.74-.25 2.39-.57 5.42h6.54q.2 0 .38.13.18.14.18.46 0 .12-.29.87-.29.76-.83 1.98l-.88 1.98q-.17.37-.35.54-.19.17-.75.22Z" class="wordmark-text-0" data-fill-palette-color="primary"></path></svg></g></svg></g></svg></g></svg></g></svg></g></svg></g></svg></g><path fill="#ea3c12" stroke="transparent" d="M0 41.215V1h240.482v40.215h-13.777V14.777H13.777v26.438H0m0 164.77V246.2h240.482v-40.215h-13.777v26.438H13.777v-26.438H0" data-fill-palette-color="primary"></path></svg></g></svg></g></svg></g></svg> 