<?xml version="1.0" encoding="UTF-8"?> <svg xmlns="http://www.w3.org/2000/svg" viewBox="0 0 1000 623"><g transform="matrix(1,0,0,1,-0.6060606060606233,0.2522267206477409)"><svg xmlns="http://www.w3.org/2000/svg" xmlns:xlink="http://www.w3.org/1999/xlink" width="1000" height="623" data-background-color="#ffffff" viewBox="0 0 396 247"><g transform="matrix(1,0,0,1,0.2400000000000091,-0.09999999999999432)"><svg width="395.52" height="247.2" viewBox="0 0 395.52 247.2"><g><svg></svg></g><g><svg width="395.52" height="247.2" viewBox="0 0 395.52 247.2"><mask id="a"><path fill="#fff" d="M0 0h395.52v247.2H0z"></path><g transform="matrix(1,0,0,1,0,71.45410018552876)"><svg width="395.52" height="104.292" viewBox="0 0 395.52 104.292"><g><svg width="395.52" height="104.292" viewBox="0 0 395.52 104.292"><g><svg width="395.52" height="104.292" viewBox="0 0 395.52 104.292"><g><svg width="395.52" height="104.292" viewBox="0 0 395.52 104.292"><g><svg width="395.52" height="104.292" viewBox="0 0 395.52 104.292"><g><svg width="395.52" height="104.292" viewBox="0 0 395.52 104.292"><g transform="matrix(1,0,0,1,0,0)"><svg width="395.52" height="104.292" data-palette-color="#ff0000" viewBox="-2.05 -40.95 216.58 57.85"><path stroke="#000" stroke-linejoin="round" stroke-width="5" d="M25.15-7.8 23.75 0H.95L7.3-36h9L11.35-7.8h13.8ZM38 .7Q27.6.7 27.6-6.5q0-1 .2-2.15l1.05-6.2q.85-4.8 4.42-7.38 3.58-2.57 9.48-2.57 10.05 0 10.05 7.6 0 1.1-.2 2.4l-.6 3.55H36.75l-.2 1.15q-.1.6-.1 1.1 0 2.75 3.25 2.75 1.2 0 2.05-.75.85-.75 1-1.75l8.3.1Q49.4.7 38 .7Zm-.75-15H44q.2-.85.2-1.58 0-.72-.65-1.47t-2.08-.75q-1.42 0-2.6.95-1.17.95-1.62 2.85Zm33.2-10.45q5.39 0 8.14 2.35 2.16 1.85 2.16 5.15 0 1.1-.25 2.4L79.45-9q-.95 5.3-4.43 7.5Q71.55.7 65.75.7q-5.8 0-8.5-2.2-2-1.65-2-4.95 0-1.15.25-2.55l1.05-5.85q1.75-9.9 13.9-9.9Zm.7 14.65.65-3.75q.1-.5.1-1.28 0-.77-.65-1.72-.66-.95-2.28-.95-1.63 0-2.72 1.07-1.1 1.08-1.41 2.88l-.64 3.75q-.11.5-.11 1.27 0 .78.66 1.68.65.9 2.27.9 1.63 0 2.73-1.13 1.09-1.12 1.4-2.72Zm29.89-14.6q5.1 0 7.05 2.7 1.4 1.85 1.4 4.7 0 1.15-.25 2.45l-1 5.85q-.85 4.75-3.65 7.22-2.8 2.48-7 2.48t-5.85-2.25l-2.7 15.45h-8.5l6.7-37.95h7.7l-.25 1.35q2.35-2 6.35-2Zm-5.2 18.2q1.4 0 2.6-.9 1.2-.9 1.5-2.7l.65-3.75q.1-.5.1-1.25t-.65-1.6q-.65-.85-2.25-.85-2.6 0-3.4 1.25l-1.5 8.4q.7 1.4 2.95 1.4Zm25.95-1.2q0 1.3 1.33 1.3 1.32 0 2.22-.5l-.25 5.65Q122.69.7 119.69.7q-4.55 0-5.9-2.1-.85-1.35-.85-2.95t.2-2.8l5.45-30.8h8.5L121.84-8.3q-.05.3-.05.6Zm30.1 0q0 1.3 1.32 1.3 1.33 0 2.23-.5l-.25 5.65Q152.79.7 149.79.7q-5.5 0-6.1-4-2.5 4-7.35 4-8.2 0-8.2-7.05 0-1.2.25-2.65l1.05-5.85q.8-4.5 3.67-7.18 2.88-2.67 7.5-2.67 4.63 0 6.28 2.15l.25-1.5h7.6l-2.8 15.75q-.05.3-.05.6Zm-14.15-6.15-.65 3.75q-.1.45-.1 1.25t.75 1.57q.75.78 2.52.78 1.78 0 3.08-1.4l1.5-8.4q-.55-1.25-2.6-1.25-3.85 0-4.5 3.7Zm45.79-5q0 1.65-1 3.05h-8.19q.4-.3.4-1t-.8-1.13q-.81-.42-2.06-.42-3.75 0-3.75 2.3 0 .9 1.4 1.3 1.41.4 3.41.65t4 .72q2 .48 3.4 1.88t1.4 3.75q0 4.15-3.33 6.3Q175.09.7 168.74.7q-6.36 0-8.9-2.05-2-1.6-2-4.4 0-.8.15-1.65l8.35-.1q-.1.7.82 1.22.93.53 2.72.53 1.81 0 2.61-.38.79-.37.79-1.42 0-.7-1.4-.98-1.39-.27-3.42-.47-2.02-.2-4.05-.65t-3.42-1.9q-1.4-1.45-1.4-3.8 0-4.55 3.52-7t10.17-2.45q10.25 0 10.25 5.95ZM196.68.7q-5.8 0-8.35-2.6-1.9-1.9-1.9-5.1 0-1.05.2-2.25l3.4-19.35 9.15-3.8-1.45 8.35h13.8L210.28-17h-13.8l-1 5.65q-.2.95-.2 1.7 0 3.15 3 3.15 1.6 0 2.68-1.35 1.07-1.35 1.47-3.6h8.3Q208.63.7 196.68.7Z" class="wordmark-text-0"></path></svg></g></svg></g></svg></g></svg></g></svg></g></svg></g></svg></g></mask><g mask="url(#a)"><g><path xmlns="http://www.w3.org/2000/svg" fill="red" d="m280.847 193.64-9.614 53.56h-156.56L158.277 0h61.8l-33.99 193.64z" data-fill-palette-color="tertiary" font-family="none" font-size="none" font-weight="none" style="mix-blend-mode:normal" text-anchor="none"></path></g></g><g transform="matrix(1,0,0,1,0,71.45410018552876)"><svg width="395.52" height="104.292" viewBox="0 0 395.52 104.292"><g><svg width="395.52" height="104.292" viewBox="0 0 395.52 104.292"><g><svg width="395.52" height="104.292" viewBox="0 0 395.52 104.292"><g><svg width="395.52" height="104.292" viewBox="0 0 395.52 104.292"><g><svg width="395.52" height="104.292" viewBox="0 0 395.52 104.292"><g><svg width="395.52" height="104.292" viewBox="0 0 395.52 104.292"><g transform="matrix(1,0,0,1,0,0)"><svg width="395.52" height="104.292" data-palette-color="#ff0000" viewBox="-2.05 -40.95 216.58 57.85"><path fill="red" d="M25.15-7.8 23.75 0H.95L7.3-36h9L11.35-7.8h13.8ZM38 .7Q27.6.7 27.6-6.5q0-1 .2-2.15l1.05-6.2q.85-4.8 4.42-7.38 3.58-2.57 9.48-2.57 10.05 0 10.05 7.6 0 1.1-.2 2.4l-.6 3.55H36.75l-.2 1.15q-.1.6-.1 1.1 0 2.75 3.25 2.75 1.2 0 2.05-.75.85-.75 1-1.75l8.3.1Q49.4.7 38 .7Zm-.75-15H44q.2-.85.2-1.58 0-.72-.65-1.47t-2.08-.75q-1.42 0-2.6.95-1.17.95-1.62 2.85Zm33.2-10.45q5.39 0 8.14 2.35 2.16 1.85 2.16 5.15 0 1.1-.25 2.4L79.45-9q-.95 5.3-4.43 7.5Q71.55.7 65.75.7q-5.8 0-8.5-2.2-2-1.65-2-4.95 0-1.15.25-2.55l1.05-5.85q1.75-9.9 13.9-9.9Zm.7 14.65.65-3.75q.1-.5.1-1.28 0-.77-.65-1.72-.66-.95-2.28-.95-1.63 0-2.72 1.07-1.1 1.08-1.41 2.88l-.64 3.75q-.11.5-.11 1.27 0 .78.66 1.68.65.9 2.27.9 1.63 0 2.73-1.13 1.09-1.12 1.4-2.72Zm29.89-14.6q5.1 0 7.05 2.7 1.4 1.85 1.4 4.7 0 1.15-.25 2.45l-1 5.85q-.85 4.75-3.65 7.22-2.8 2.48-7 2.48t-5.85-2.25l-2.7 15.45h-8.5l6.7-37.95h7.7l-.25 1.35q2.35-2 6.35-2Zm-5.2 18.2q1.4 0 2.6-.9 1.2-.9 1.5-2.7l.65-3.75q.1-.5.1-1.25t-.65-1.6q-.65-.85-2.25-.85-2.6 0-3.4 1.25l-1.5 8.4q.7 1.4 2.95 1.4Zm25.95-1.2q0 1.3 1.33 1.3 1.32 0 2.22-.5l-.25 5.65Q122.69.7 119.69.7q-4.55 0-5.9-2.1-.85-1.35-.85-2.95t.2-2.8l5.45-30.8h8.5L121.84-8.3q-.05.3-.05.6Zm30.1 0q0 1.3 1.32 1.3 1.33 0 2.23-.5l-.25 5.65Q152.79.7 149.79.7q-5.5 0-6.1-4-2.5 4-7.35 4-8.2 0-8.2-7.05 0-1.2.25-2.65l1.05-5.85q.8-4.5 3.67-7.18 2.88-2.67 7.5-2.67 4.63 0 6.28 2.15l.25-1.5h7.6l-2.8 15.75q-.05.3-.05.6Zm-14.15-6.15-.65 3.75q-.1.45-.1 1.25t.75 1.57q.75.78 2.52.78 1.78 0 3.08-1.4l1.5-8.4q-.55-1.25-2.6-1.25-3.85 0-4.5 3.7Zm45.79-5q0 1.65-1 3.05h-8.19q.4-.3.4-1t-.8-1.13q-.81-.42-2.06-.42-3.75 0-3.75 2.3 0 .9 1.4 1.3 1.41.4 3.41.65t4 .72q2 .48 3.4 1.88t1.4 3.75q0 4.15-3.33 6.3Q175.09.7 168.74.7q-6.36 0-8.9-2.05-2-1.6-2-4.4 0-.8.15-1.65l8.35-.1q-.1.7.82 1.22.93.53 2.72.53 1.81 0 2.61-.38.79-.37.79-1.42 0-.7-1.4-.98-1.39-.27-3.42-.47-2.02-.2-4.05-.65t-3.42-1.9q-1.4-1.45-1.4-3.8 0-4.55 3.52-7t10.17-2.45q10.25 0 10.25 5.95ZM196.68.7q-5.8 0-8.35-2.6-1.9-1.9-1.9-5.1 0-1.05.2-2.25l3.4-19.35 9.15-3.8-1.45 8.35h13.8L210.28-17h-13.8l-1 5.65q-.2.95-.2 1.7 0 3.15 3 3.15 1.6 0 2.68-1.35 1.07-1.35 1.47-3.6h8.3Q208.63.7 196.68.7Z" class="wordmark-text-0" data-fill-palette-color="primary"></path></svg></g></svg></g></svg></g></svg></g></svg></g></svg></g></svg></g></svg></g></svg></g></svg></g></svg> 