<?xml version="1.0" encoding="UTF-8"?> <svg xmlns="http://www.w3.org/2000/svg" viewBox="0 0 1000 999"><g transform="matrix(1,0,0,1,-0.215743440233382,-0.21552769679306039)"><svg xmlns="http://www.w3.org/2000/svg" xmlns:xlink="http://www.w3.org/1999/xlink" width="1000" height="999" data-background-color="#ffffff" viewBox="0 0 343 343"><g transform="matrix(1,0,0,1,0.0740000000000407,0.07400000000001228)"><svg width="342.852" height="342.852" viewBox="0 0 342.852 342.852"><g><svg></svg></g><g><svg width="342.852" height="342.852" viewBox="0 0 342.852 342.852"><g fill="#30017e"><path stroke="transparent" d="M0 171.426C0 76.75 76.75 0 171.426 0c94.676 0 171.426 76.75 171.426 171.426 0 94.676-76.75 171.426-171.426 171.426C76.75 342.852 0 266.102 0 171.426zm171.426 166.596c92.008 0 166.596-74.587 166.596-166.596 0-92.008-74.587-166.596-166.596-166.596C79.418 4.83 4.83 79.417 4.83 171.426c0 92.008 74.587 166.596 166.596 166.596z" data-fill-palette-color="tertiary"></path><circle cx="171.426" cy="171.426" r="164.569" data-fill-palette-color="tertiary"></circle></g><g transform="matrix(1,0,0,1,64.84655864529837,144.6461916576624)"><svg width="213.158" height="53.559" viewBox="0 0 213.158 53.559"><g><svg width="213.158" height="53.559" viewBox="0 0 213.158 53.559"><g><svg width="213.158" height="53.559" viewBox="0 0 213.158 53.559"><g><svg width="213.158" height="53.559" viewBox="0 0 213.158 53.559"><g><svg width="213.158" height="53.559" viewBox="0 0 213.158 53.559"><g><svg width="213.158" height="53.559" viewBox="0 0 213.158 53.559"><g transform="matrix(1,0,0,1,0,0)"><svg width="213.158" height="53.559" data-palette-color="#ffffff" viewBox="-1.247 -36.95 148.837 37.4"><path fill="#fff" d="M26.95-33.3q5.3 0 8.18 2.3Q38-28.7 38-24.9q0 1.5-.45 3.15-1.4 5-5.53 7.4-4.12 2.4-10.42 2.4h-5.15l-1.7 6.05q-.1.3-.1.8 0 .7.33 1.15.32.45.97 1.05.55.5.75.75.2.25.2.6 0 .85-.8 1.2T13.75 0H1.2Q-.1 0-.75-.48-1.4-.95-1.2-1.8q.1-.45.37-.73.28-.27.83-.62.85-.5 1.35-1.05.5-.55.8-1.7l6.1-21.55q.2-.65.2-1.25 0-.55-.17-.93-.18-.37-.48-.87-.45-.65-.45-1.05 0-.15.1-.55.2-.65.88-.92.67-.28 2.07-.28h16.55Zm-1.3 10.65q.55-1.85.55-3.25 0-2.9-2.7-2.9h-2.25L17.7-16.45h2.2q2.1 0 3.43-1.33 1.32-1.32 2.32-4.87ZM51.1-26.7q6.35 0 9.2 2.02 2.85 2.03 2.85 5.18 0 .95-.2 1.75-.75 3.3-4.18 4.72-3.42 1.43-8.07 1.43-2.35 0-4.4-.3-.05 2.6 1.4 3.65 1.45 1.05 4.05 1.05 1.2 0 2.3-.28 1.1-.27 2.8-.82 1.4-.5 1.9-.5.55 0 .55.65.05 1.75-1.3 3.67-1.35 1.93-4 3.28Q51.35.15 47.6.15q-5.55 0-9.1-2.8t-3.55-8.15q0-1.5.4-3.5 1.25-6.15 5.47-9.28 4.23-3.12 10.28-3.12Zm-4.45 11.8q.2.05.55.05 2.1 0 3.2-1.95t1.05-4.35q-.05-1.4-.8-1.4-.55 0-1.3.87-.75.88-1.48 2.63-.72 1.75-1.22 4.15ZM84.5-25.8q.95 0 1.47.4.53.4.53 1.1 0 .2-.1.7-.65 2.2-3 2.2h-2.9L76.75-9.05q-.25.75-.25 1.55 0 .9.5 1.25t1.4.35q.8 0 2-.2.6-.15 1.05-.15.35 0 .52.22.18.23.18.58.05 1-1.48 2.42-1.52 1.43-4.12 2.45Q73.95.45 70.8.45q-3.4 0-5.46-1.55-2.04-1.55-2.04-4.25 0-1.25.4-2.4l3.2-9.9q.25-.85.25-1.35 0-1-.48-1.7-.47-.7-1.33-1.45-.75-.7-1.04-1.18-.3-.47-.15-1.12.19-.65.85-1 .65-.35 2.05-.35h2.79L73-28.95q1.65-1.65 3.02-2.3 1.38-.65 3.57-.65 3.16 0 3.16 2.4 0 .75-.2 1.4l-.71 2.3h2.66Zm16.09-.9q6.35 0 9.2 2.02 2.85 2.03 2.85 5.18 0 .95-.2 1.75-.75 3.3-4.17 4.72-3.43 1.43-8.08 1.43-2.35 0-4.4-.3-.05 2.6 1.4 3.65 1.45 1.05 4.05 1.05 1.2 0 2.3-.28 1.1-.27 2.8-.82 1.4-.5 1.9-.5.55 0 .55.65.05 1.75-1.3 3.67-1.35 1.93-4 3.28-2.65 1.35-6.4 1.35-5.55 0-9.1-2.8t-3.55-8.15q0-1.5.4-3.5 1.25-6.15 5.48-9.28 4.22-3.12 10.27-3.12Zm-4.45 11.8q.2.05.55.05 2.1 0 3.2-1.95t1.05-4.35q-.05-1.4-.8-1.4-.55 0-1.3.87-.75.88-1.47 2.63-.73 1.75-1.23 4.15Zm45.15-11.55q2.85 0 4.58 1.57 1.72 1.58 1.72 3.83 0 2.4-1.45 3.75t-3.8 1.35q-2.1 0-3.25-1.08-1.15-1.07-1.1-2.42-.5-.1-.85.4t-.75 1.95q-.25.95-.95 1.75 3.4.25 5.05 1.55t1.65 3.35q0 1-.35 2l-.4 1.55q-.1.25-.1.65 0 .7.65.7.6 0 1.03-.53.42-.52.57-.52.25 0 .4.32.15.33.15.78.05 1.45-.87 2.82-.93 1.38-2.8 2.25-1.88.88-4.53.88-3.2 0-5.32-1.6-2.13-1.6-2.13-4.2 0-.95.4-2.15l.95-2.5q.25-.9.25-1.3 0-.65-.42-.95-.43-.3-1.33-.3h-1l-2.25 7.35q-.15.6-.15 1.05 0 .65.25 1.02.25.38.7.73.35.35.5.57.15.23.05.58-.25.65-1 .95-.75.3-2.3.3h-11.4q-1.3 0-1.9-.43-.6-.42-.4-1.12.2-.6 1.05-1.05.75-.4 1.25-.95.5-.55.85-1.75l7.6-24.95q.15-.45.15-.75 0-.55-.27-.9-.28-.35-.73-.7-.5-.4-.72-.7-.23-.3-.08-.8.3-1.15 3.15-2 2.85-.85 5.95-.85 2.9 0 4.25 1.07 1.35 1.08 1.35 2.98 0 1.15-.35 2.2l-4.35 14.2h1.65q1 0 1.63-.6.62-.6.97-1.75 1.25-3.7 3.25-5.65 2-1.95 5.3-1.95Z" class="wordmark-text-0" data-fill-palette-color="quaternary"></path></svg></g></svg></g></svg></g></svg></g></svg></g></svg></g></svg></g></svg></g></svg></g></svg></g></svg> 