<svg xmlns="http://www.w3.org/2000/svg" data-name="Layer 1" viewBox="0 0 997.04 243.04"><path d="M.87 0h997v243H.87Z" style="fill:#fff" transform="translate(-0.87 0)"></path><path d="M60.4 176.07h16.82V62.29h46q28.27 0 40.34 9.54t12 30.7q0 29.13-23.07 37.64l25.33 35.9h16.3v7.46H149.9L123 144.85h-18.72v38.68H60.4Zm63.66-54.64q13.88 0 18.9-4.51t5-14.32q0-9.78-5.2-13.43t-18.21-3.64h-20.3v35.9Zm191.14 54.64h20.12v7.46h-45.61l-11.28-26.19h-50.82l-11.28 26.19h-45.61v-7.46h19.94l49.26-113.78h26.2Zm-47-42.49-15.09-35.22-15.27 35.22Zm116 42.49h45.27v7.46H310.14v-7.46h45.1L309.62 62.29h29.31l30.88 77.18 30.87-77.18H430Zm43.37 0h16.82V62.29h87.42V86.4h-60.36v25h54.29v23.07h-54.29v25.15h62.27v16.48h16.83v7.46h-123v-7.46Zm113.44 0h16.82V62.29h25.33l59.49 78.05V62.29h27.06v113.78h16.82v7.46h-43.88l-57.76-76v76H541v-7.46Zm248.21 0h38.68v7.46H684.63v-7.46h38.68a60 60 0 0 1-22.48-22.37 62 62 0 0 1-8.22-31.57q0-26.72 18.38-44.68t45.27-17.94q26.9 0 45.27 17.94t18.39 44.68a61.66 61.66 0 0 1-30.7 53.94Zm3.12-53.87q0-16.2-10.41-27.65a34.3 34.3 0 0 0-51.16 0Q720.36 106 720.36 122.2t10.41 27.58a34.44 34.44 0 0 0 51.16 0q10.41-11.35 10.41-27.58Zm129.23 53.87h16.82v7.46H826v-7.46h16.83V62.29h27.06v97.13h51.69v16.65Z" style="fill:#04117e" transform="translate(-0.87 0)"></path></svg>