<?xml version="1.0" encoding="UTF-8"?> <svg xmlns="http://www.w3.org/2000/svg" viewBox="0 0 1000 623"><g transform="matrix(1,0,0,1,-0.6060606060606233,0.2522267206477409)"><svg xmlns="http://www.w3.org/2000/svg" xmlns:xlink="http://www.w3.org/1999/xlink" width="1000" height="623" data-background-color="#bb84e8" viewBox="0 0 396 247"><g transform="matrix(1,0,0,1,0.2400000000000091,-0.09999999999999432)"><svg width="395.52" height="247.2" viewBox="0 0 395.52 247.2"><g><svg></svg></g><g><svg width="395.52" height="247.2" viewBox="0 0 395.52 247.2"><mask id="a"><path fill="#fff" d="M0 0h640v400H0z"></path><g transform="matrix(1,0,0,1,39.55199999999999,60.03491492204899)"><svg width="316.416" height="127.13" viewBox="0 0 316.416 127.13"><g><svg width="316.416" height="127.13" viewBox="0 0 316.416 127.13"><g><svg width="316.416" height="127.13" viewBox="0 0 316.416 127.13"><g><svg width="316.416" height="127.13" viewBox="0 0 316.416 127.13"><g><svg width="316.416" height="127.13" viewBox="0 0 316.416 127.13"><g><svg width="316.416" height="127.13" viewBox="0 0 316.416 127.13"><g transform="matrix(1,0,0,1,0,0)"><svg width="316.416" height="127.13" data-palette-color="#BF3617" viewBox="-2.9 -41.45 113.24 46.1"><path stroke="#000" stroke-linejoin="round" stroke-width="7" d="M12.4-35.05q3.05 0 5.33 1 2.27 1 4.27 3l-2.35 2.65q-1.7-1.5-3.37-2.23-1.68-.72-3.63-.72-2.5 0-4.02 1.37Q7.1-28.6 7.1-26.35q0 1.5.6 2.57.6 1.08 2.05 1.95 1.45.88 4.1 1.78 3.05 1.1 5 2.35 1.95 1.25 3 3.2 1.05 1.95 1.05 4.9t-1.35 5.27Q20.2-2 17.68-.68 15.15.65 11.75.65 5.5.65 1.1-3.85L3.55-6.5Q5.4-4.85 7.33-3.98q1.92.88 4.27.88 2.95 0 4.72-1.68Q18.1-6.45 18.1-9.4q0-2.55-1.42-4.05-1.43-1.5-5.23-2.8-4.85-1.7-6.97-3.95-2.13-2.25-2.13-5.85 0-2.55 1.28-4.63Q4.9-32.75 7.2-33.9q2.3-1.15 5.2-1.15Zm27.25 31 1.65 2.9Q38.8.65 35.75.65q-3.2 0-4.93-1.85-1.72-1.85-1.72-5.2v-16.5h-3.75v-3.4h3.75v-6.05l4.5-.55v6.6h5.8l-.5 3.4h-5.3v16.45q0 3.4 2.85 3.4.85 0 1.57-.25.73-.25 1.63-.75ZM61.6-6q0 1.6.45 2.37.45.78 1.4 1.18L62.5.6Q60.55.3 59.45-.6q-1.11-.9-1.55-2.75-2.55 4-7.15 4-3.5 0-5.55-2.18-2.05-2.17-2.05-5.82 0-4.2 2.75-6.4t7.85-2.2h3.4v-2.25q0-2.75-1.13-3.98-1.12-1.22-3.67-1.22-2.75 0-6.4 1.4l-1.1-3.15q4.4-1.8 8.2-1.8 8.55 0 8.55 8.55V-6Zm-9.8 3.25q3.5 0 5.35-4.1v-6.2h-2.9q-6.5 0-6.5 5.45 0 2.35 1.05 3.6t3 1.25ZM80.49-26.9q1.3 0 2.25.3l-.75 4.35q-.95-.3-2.05-.3-2.2 0-3.57 1.75-1.38 1.75-2.18 5.35V0h-4.5v-26.3h3.9l.35 5.2q1.95-5.8 6.55-5.8Zm6.65-10.05 4.5-.5V0h-4.5v-36.95Zm13.65 10.65h4.7l-8.9 11.7L106.34 0h-5l-9.45-14.4 8.9-11.9Z" class="wordmark-text-0"></path></svg></g></svg></g></svg></g></svg></g></svg></g></svg></g></svg></g></mask><g transform="matrix(1,0,0,1,39.55199999999999,60.03491492204899)"><svg width="316.416" height="127.13" viewBox="0 0 316.416 127.13"><g><svg width="316.416" height="127.13" viewBox="0 0 316.416 127.13"><g><svg width="316.416" height="127.13" viewBox="0 0 316.416 127.13"><g><svg width="316.416" height="127.13" viewBox="0 0 316.416 127.13"><g><svg width="316.416" height="127.13" viewBox="0 0 316.416 127.13"><g><svg width="316.416" height="127.13" viewBox="0 0 316.416 127.13"><g transform="matrix(1,0,0,1,0,0)"><svg width="316.416" height="127.13" data-palette-color="#BF3617" viewBox="-2.9 -41.45 113.24 46.1"><path fill="#BF3617" d="M12.4-35.05q3.05 0 5.33 1 2.27 1 4.27 3l-2.35 2.65q-1.7-1.5-3.37-2.23-1.68-.72-3.63-.72-2.5 0-4.02 1.37Q7.1-28.6 7.1-26.35q0 1.5.6 2.57.6 1.08 2.05 1.95 1.45.88 4.1 1.78 3.05 1.1 5 2.35 1.95 1.25 3 3.2 1.05 1.95 1.05 4.9t-1.35 5.27Q20.2-2 17.68-.68 15.15.65 11.75.65 5.5.65 1.1-3.85L3.55-6.5Q5.4-4.85 7.33-3.98q1.92.88 4.27.88 2.95 0 4.72-1.68Q18.1-6.45 18.1-9.4q0-2.55-1.42-4.05-1.43-1.5-5.23-2.8-4.85-1.7-6.97-3.95-2.13-2.25-2.13-5.85 0-2.55 1.28-4.63Q4.9-32.75 7.2-33.9q2.3-1.15 5.2-1.15Zm27.25 31 1.65 2.9Q38.8.65 35.75.65q-3.2 0-4.93-1.85-1.72-1.85-1.72-5.2v-16.5h-3.75v-3.4h3.75v-6.05l4.5-.55v6.6h5.8l-.5 3.4h-5.3v16.45q0 3.4 2.85 3.4.85 0 1.57-.25.73-.25 1.63-.75ZM61.6-6q0 1.6.45 2.37.45.78 1.4 1.18L62.5.6Q60.55.3 59.45-.6q-1.11-.9-1.55-2.75-2.55 4-7.15 4-3.5 0-5.55-2.18-2.05-2.17-2.05-5.82 0-4.2 2.75-6.4t7.85-2.2h3.4v-2.25q0-2.75-1.13-3.98-1.12-1.22-3.67-1.22-2.75 0-6.4 1.4l-1.1-3.15q4.4-1.8 8.2-1.8 8.55 0 8.55 8.55V-6Zm-9.8 3.25q3.5 0 5.35-4.1v-6.2h-2.9q-6.5 0-6.5 5.45 0 2.35 1.05 3.6t3 1.25ZM80.49-26.9q1.3 0 2.25.3l-.75 4.35q-.95-.3-2.05-.3-2.2 0-3.57 1.75-1.38 1.75-2.18 5.35V0h-4.5v-26.3h3.9l.35 5.2q1.95-5.8 6.55-5.8Zm6.65-10.05 4.5-.5V0h-4.5v-36.95Zm13.65 10.65h4.7l-8.9 11.7L106.34 0h-5l-9.45-14.4 8.9-11.9Z" class="wordmark-text-0" data-fill-palette-color="primary"></path></svg></g></svg></g></svg></g></svg></g></svg></g></svg></g></svg></g><g mask="url(#a)"><g transform="matrix(3.0487276325786086, 0, 0, 3.0487276325786086, 45.323095022286196, 1)"><svg xmlns="http://www.w3.org/2000/svg" xmlns:xlink="http://www.w3.org/1999/xlink" xml:space="preserve" width="100" height="80.427" class="icon-none" data-fill-palette-color="accent" viewBox="0 9.786 100 80.427"><path fill="#BF3617" d="m49.942 52.994 40.653-1.465c-2.527-4.177-3.159-7.831-7.989-8.461-7.229-.94-14.458-1.883-21.688-2.826l-42.075-5.48c1.258 2.03 20.881 18.599 31.099 18.232zM0 9.786c4.391 7.257 26.615 23.072 32.953 23.886 17.33 2.231 34.657 4.46 51.986 6.688-3.393-5.607-4.18-9.35-10.312-10.959L47.91 22.378C31.94 18.182 15.97 13.984 0 9.786zM63.108 66.207l31.241-6.66c-2.028-3.346-2.034-5.359-5.827-5.189-6.158.273-12.314.549-18.471.822-11.343.506-22.686 1.014-34.028 1.518 1.275 1.366 18.917 11.249 27.085 9.509zM87.682 90.213c5.725-3.719 7.262-7.721 10.519-13.807 3.651-6.824 1.257-7.844-2.821-14.596-.417-.688-5.842.232-6.453.904-.745.818-.248 5.455-.294 6.496l-.951 21.003zM86.35 63.447c-3.795.809-8.604.191-9.572 4.229l-4.12 17.211c9.246-2.209 13.37-13.305 13.692-21.44zM74.666 66.121c-9.148 1.953-8.956 4.611-12.879 13.18 6.22-.59 12.024-7.36 12.879-13.18z" data-fill-palette-color="accent"></path></svg></g></g></svg></g></svg></g></svg></g></svg> 