<svg xmlns="http://www.w3.org/2000/svg" data-name="Layer 1" viewBox="0 0 997.33 291.13"><path d="M43.52 23.59A152.62 152.62 0 0 1 80.45 6.2 128 128 0 0 1 119 0c1.57 0 3.33 0 5.26.13s4.63.32 8.22.54l3 207.23L206.27 1.68h23.59l-93.67 251H85V22.58q-26.28 8.09-39.56 27t-13.37 47.8a62 62 0 0 0 .87 11.12 36.12 36.12 0 0 0 2.83 9.1c.45.9.74 1.5.88 1.82a3.73 3.73 0 0 1 .13.87q-18.87 0-27.43-8T.73 87.61q0-16.85 11.32-33.7t31.47-30.32Zm207.23 0A152.92 152.92 0 0 1 287.62 6.2 128.56 128.56 0 0 1 326.23 0c1.57 0 3.3 0 5.19.13s4.69.32 8.29.54l-53.58 252.05h-48.52l48.86-228.8q-22.92 9.44-35 28.31T239.3 97.38a67.7 67.7 0 0 0 .8 11.12 38.45 38.45 0 0 0 2.9 9.1 13.31 13.31 0 0 1 .81 1.82 2.5 2.5 0 0 1 .2.87q-18.87 0-27.49-8T208 87.61q0-16.85 11.25-33.7t31.5-30.32ZM394.63 173.2q0 28 9.78 40.23t30.66 12.33a78.7 78.7 0 0 0 36.52-9 83.3 83.3 0 0 0 29.19-24.73l7.75 3.37q-11.13 28.63-38.62 45.62t-57.42 17.05q-39.09 0-56.47-19.75t-17.32-63.1a256.88 256.88 0 0 1 7.07-58.3q7.08-30.32 19.55-54.25Q381.49 32 404.54 16A88.94 88.94 0 0 1 456.3 0q27 0 41.58 11.66t14.69 33.49q0 15.17-6.13 23.05t-17.46 8a25.59 25.59 0 0 1-10.65-2.22 23.89 23.89 0 0 1-8.55-6.54q6.06-3 10.78-12.33a40.74 40.74 0 0 0 4.72-18.67q0-9.76-5.4-15.16t-15.16-5.39q-14.82 0-29.31 18t-25.28 49.68a289.45 289.45 0 0 0-11.45 45 262.72 262.72 0 0 0-4.05 44.68ZM648 182.29 722.09 4.72h48.52l-35.38 248h-48.52l21.56-151.3-63.34 151.3h-46.17l6.74-152-56.27 152h-27l85.63-231.49q-26 8.76-39.76 28.3T554.28 97a66.68 66.68 0 0 0 .88 11.6 31.23 31.23 0 0 0 2.83 9c.45.9.74 1.5.88 1.82a3.73 3.73 0 0 1 .13.87q-18.19 0-27.09-7.61t-9-23.05q0-16.17 10-32.89t27.43-30.46a129.46 129.46 0 0 1 34-19.41A100.71 100.71 0 0 1 630.1 0a75.47 75.47 0 0 1 13 1.15 68.62 68.62 0 0 1 12.6 3.57L648 182.29Zm277.65-66.71 19.55-91.66q-13.81 7.42-29.32 27.77t-31.38 52.09q12.13 2.37 22.38 5.39t18.73 6.41ZM971.44 0a87.68 87.68 0 0 1 14.15 1.15 53.07 53.07 0 0 1 12.47 3.57l-52.9 248h-48.53l26-122.32a152.38 152.38 0 0 0-22.24-8.29 128 128 0 0 0-22.91-3.84A587.08 587.08 0 0 0 846 203.19q-12.35 43.13-12.34 69.07a44.3 44.3 0 0 0 1.15 10.65 29.51 29.51 0 0 0 3.57 8.22q-25.61 0-35.38-8.76t-9.77-27q0-22.57 13.61-60.31a500.9 500.9 0 0 1 35.92-76.83q-17.19 1-26.75 5.39t-12.71 12.17q1.35 0 2.83 3.58a16.92 16.92 0 0 1 1.55 6.87q0 5.73-5.39 9.43t-13.48 3.71q-9.43 0-15.17-5.26t-5.72-14.28q0-17.52 19.67-29.52t49.07-11.93c2.24 0 4.83 0 7.75.14s6.17.42 9.77.87q29.66-46.83 60.31-73.12T971.44 0Z" style="fill:#ffe6a1" transform="translate(-0.73 0)"></path></svg>