<svg xmlns="http://www.w3.org/2000/svg" data-name="Layer 1" viewBox="0 0 995.57 144.9"><path d="M146.51 13.24V144.9h-26.28v-35.55H27.89v35.55H1.61V72.47a76.36 76.36 0 0 1 5.46-29.22 67.77 67.77 0 0 1 15.15-22.93 69.05 69.05 0 0 1 22.93-15A76.55 76.55 0 0 1 74 0h59.23a13.32 13.32 0 0 1 5.13 1 13.14 13.14 0 0 1 4.26 2.86 12.71 12.71 0 0 1 2.82 4.22 13.11 13.11 0 0 1 1.07 5.16ZM27.89 72.47v10.6h92.34V26.28H74c-.8 0-2.5.11-5.09.33a53.39 53.39 0 0 0-9 1.78 54.67 54.67 0 0 0-10.76 4.35 38.2 38.2 0 0 0-10.43 8.07A41.28 41.28 0 0 0 31 53.72q-3.11 7.7-3.11 18.75ZM321.59 108v5a36.23 36.23 0 0 1-1.66 10.39 29.67 29.67 0 0 1-5.46 10.31 30.21 30.21 0 0 1-9.85 7.94q-6 3.19-14.86 3.19h-99.71a13.64 13.64 0 0 1-5.25-1 12.87 12.87 0 0 1-7-7 13.64 13.64 0 0 1-1-5.25V13.24a13.63 13.63 0 0 1 1-5.17 14.14 14.14 0 0 1 2.78-4.22A12.66 12.66 0 0 1 184.8 1a13.64 13.64 0 0 1 5.25-1H278a34.81 34.81 0 0 1 10.39 1.74 31.22 31.22 0 0 1 10.35 5.5 30.08 30.08 0 0 1 8 9.85q3.18 6 3.18 14.86v4.93a54.47 54.47 0 0 1-2.31 15 49.35 49.35 0 0 1-7.49 15.19 45.91 45.91 0 0 1 8.36 6.58 42.31 42.31 0 0 1 6.82 8.9A48.21 48.21 0 0 1 319.89 94a54.21 54.21 0 0 1 1.7 14Zm-26.24 4.85V108a25 25 0 0 0-1.62-9.27 20.38 20.38 0 0 0-4.55-7 19.84 19.84 0 0 0-7.08-4.51 26 26 0 0 0-9.31-1.58H213.6V59.23H261a25.92 25.92 0 0 0 9.28-1.58 19.58 19.58 0 0 0 11.58-11.5 25.67 25.67 0 0 0 1.58-9.27V32q0-5.67-5.47-5.67h-74.88v92.34h86.67c.47 0 1.05 0 1.74-.08a4.74 4.74 0 0 0 1.82-.62 4.42 4.42 0 0 0 1.41-1.7 7.64 7.64 0 0 0 .62-3.4ZM486.6 13.24V144.9h-26.28v-35.55H368v35.55h-26.3V72.47a76.17 76.17 0 0 1 5.47-29.22 68.49 68.49 0 0 1 15.14-22.93 69.05 69.05 0 0 1 22.93-15A76.55 76.55 0 0 1 414.13 0h59.23a13.59 13.59 0 0 1 5.17 1 13.42 13.42 0 0 1 7.08 7.08 13.63 13.63 0 0 1 .99 5.16ZM368 72.47v10.6h92.34V26.28h-46.21c-.8 0-2.49.11-5.09.33a53.39 53.39 0 0 0-9 1.78 56.18 56.18 0 0 0-10.76 4.35 38.2 38.2 0 0 0-10.43 8.07 42.22 42.22 0 0 0-7.82 12.91Q368 61.42 368 72.47Zm226.53 0L669 144.9h-37.29l-59.14-59.23h-18.46V59.23h18.46L631.71 0H669ZM543.6 0v144.9h-26.28V0Zm283.8 0v131.66a13.64 13.64 0 0 1-1 5.25 11.79 11.79 0 0 1-2.82 4.18 13.2 13.2 0 0 1-9.39 3.81H755a81.72 81.72 0 0 1-17-1.82 76.15 76.15 0 0 1-16.64-5.59 71.43 71.43 0 0 1-15.1-9.68 62.06 62.06 0 0 1-12.38-13.87 67.51 67.51 0 0 1-8.32-18.42 81.09 81.09 0 0 1-3.06-23V0h26.28v72.47q0 11.1 3.1 18.79a41.44 41.44 0 0 0 7.83 12.83 38.34 38.34 0 0 0 10.39 8.07 55.93 55.93 0 0 0 10.76 4.35 54.35 54.35 0 0 0 9 1.78c2.59.22 4.29.33 5.09.33h46.19V0Zm169.78 102.27a45.63 45.63 0 0 1-2 14 42.34 42.34 0 0 1-5.21 11 35.57 35.57 0 0 1-7.58 8.07 45.42 45.42 0 0 1-9 5.46 45.92 45.92 0 0 1-9.44 3.15 44.94 44.94 0 0 1-9.06 1H853.56v-26.33h101.36q7.58 0 11.8-4.43t4.18-11.92a19.15 19.15 0 0 0-1.12-6.66 15.18 15.18 0 0 0-3.19-5.26 13.77 13.77 0 0 0-5.05-3.43 17 17 0 0 0-6.62-1.25h-60.43a46.92 46.92 0 0 1-13.74-2.27 41.49 41.49 0 0 1-13.7-7.33 40.46 40.46 0 0 1-10.51-13.2q-4.18-8.19-4.18-20t4.18-20a40.14 40.14 0 0 1 24.21-20.59A46.62 46.62 0 0 1 894.49 0h89.44v26.28h-89.44c-5 0-8.86 1.52-11.67 4.55s-4.18 7-4.18 12 1.39 9 4.18 12 6.71 4.43 11.67 4.43h60.64a47.13 47.13 0 0 1 18.46 4.42 47.23 47.23 0 0 1 8.94 5.63 38.07 38.07 0 0 1 7.53 8.12 39.93 39.93 0 0 1 5.17 10.92 46.19 46.19 0 0 1 1.95 14Z" style="fill:#fff" transform="translate(-1.61 0)"></path></svg>