<?xml version="1.0" encoding="UTF-8"?> <svg xmlns="http://www.w3.org/2000/svg" viewBox="0 0 1000 272"><g transform="translate(-.606 -.2)"><svg xmlns="http://www.w3.org/2000/svg" xmlns:xlink="http://www.w3.org/1999/xlink" width="1000" height="272" data-background-color="#ffffff" viewBox="0 0 396 108"><g transform="translate(.24 .08)"><svg width="395.52" height="107.841" viewBox="0 0 395.52 107.841"><g><svg width="395.52" height="107.841" viewBox="0 0 395.52 107.841"><g><svg width="395.52" height="107.841" viewBox="0 0 395.52 107.841"><g><svg width="395.52" height="107.841" viewBox="0 0 395.52 107.841"><g><svg width="395.52" height="107.841" viewBox="0 0 395.52 107.841"><path fill="#096a2e" d="M394.594 23.13c-1.859-11.194-7.159-14.306-7.159-14.306-16.27-11.53-36.575-9.045-54.816-7.388-32.205.067-64.28 2.53-96.411 3.851-67.441.201-135.459-3.112-202.565 5.059-6.304 2.508-40.183.493-32.522 14.217 2.008 5.709 9.335 12.044 9.111 17.283 1.004.918 2.399-1.187 2.994.134 2.083 3.56 5.485 1.881 8.275 3.985-3.887 5.62-1.098 10.299 1.561 15.202-4.685 1.276-10.691.671-13.387 4.903-.279 3.067-1.785 2.485-3.44 2.35-1.209-.089-3.645.247-3.236 1.209 1.395 3.291-4.593 5.194-.837 8.418-2.584 3.492 1.786 6.515 1.191 10.298-.075.762.334 1.411.985 1.59 2.882.963-1.32 2.843-.874 4.88 29.565 13.926 61.64 4.299 91.93 10.702 7.865-4.478 1.952 1.589 5.095.649 2.454-1.097 4.239 3.448 7.01.873.428-.739-.223-2.485 1.301-2.149.8.179 1.507.134 1.618-.896.168-1.544-1.301-.582-1.692-1.388 4.221-4.074 3.18 5.62 7.14 5.217-.186-1.187-1.338-2.888 1.023-2.664 2.343-1.702 2.417-3.112 4.5.716.074.828.446 1.41 1.041 1.813 6.508-4.164 12.979 1.478 19.803-.403 4.184-2.059 8.2 1.12 12.439.336 1.488-.627 2.994-1.746 4.426.135 17.534.402 36.221-1.277 52.845.067 44.421-2.508 91.892 1.03 138.731-2.284 11.045-1.276 22.518-3.089 33.284-4.545 0 0 8.721-3.985 8.721-21.895s1.859-15.671 2.138-29.932c.279-14.261 1.581-14.843-.279-26.037Z" data-fill-palette-color="tertiary"></path><g transform="translate(55.768 26.23)"><svg width="283.983" height="55.38" data-palette-color="#ffffff" viewBox="0 -31.55 164.34 32.05"><path fill="#fff" d="M21.7-31.05 28.15 0h-10.5l-1-4.8H11.1L10.05 0H0l6.45-31.05H21.7Zm-9.85 19.8h4.05L14-21.65h-.2l-1.95 10.4Zm37.65 3.2L48.8 0H30.15v-31.05h10.7v23h8.65Zm21-23L76.95 0h-10.5l-1-4.8H59.9L58.84 0H48.8l6.45-31.05H70.5Zm-9.85 19.8h4.05l-1.9-10.4h-.21l-1.94 10.4Zm44.64-19.8V0h-10.2l-6.3-12.25h-.35V0h-9.5v-31.05h10.55l5.9 12.65h.3v-12.65h9.6Zm23.65 16.15L134.89 0h-11.75l-3.15-10.3h-.55V0h-10.15v-31.05h10.15v12.3h.55l3.95-12.3h11.45l-6.45 16.15Zm6.95-.83q0-8.32 3.32-12.07 3.33-3.75 10.95-3.75 7.63 0 10.9 3.7 3.28 3.7 3.28 12.02 0 8.33-3.38 12.33-3.37 4-10.9 4-7.52 0-10.85-3.95-3.32-3.95-3.32-12.28Zm17.05-5.95q-.65-1.27-2.8-1.27t-2.75 1.25q-.6 1.25-.6 5.35v2.2q0 4.2.65 5.45t2.85 1.25q2.2 0 2.75-1.2.55-1.2.55-5.35v-2.3q0-4.1-.65-5.38Z" class="wordmark-text-0" data-fill-palette-color="quaternary"></path></svg></g></svg></g></svg></g></svg></g></svg></g></svg></g></svg></g></svg> 