<svg xmlns="http://www.w3.org/2000/svg" data-name="Layer 1" viewBox="0 0 998.01 270.99"><path d="M326.5 17.84c4.88 0 8.84 4.47 8.84 10v215.33c0 5.51-4 10-8.84 10-4.88 0-8.84-4.47-8.84-10V27.82c0-5.51 3.96-9.98 8.84-9.98Zm102.2 212.47q-10.87 0-26.46 1.05T381.67 233l2.33-22.68q12-2.07 16.34-6.77t4.24-15.87l.29-110.54q0-7.65-2.06-11c-1.37-2.24-3.62-3.35-6.76-3.35a57.87 57.87 0 0 0-5.88.29c-2 .2-3.33.29-4.11.29l-2.65-2.64 3.23-20.29 44.4.59q12-.3 27.63-.88t22.05-.88q31.45 0 47.92 11.76t16.46 34.1q0 27.63-30.28 45 39.39 11.46 39.39 43.51 0 28.22-21 44.09t-58.68 15.88q-37.59-3.31-45.83-3.3Zm23.82-110.84c2.15.4 6.46 1 12.93 1.77s10.88 1.17 13.23 1.17q0 .6 4.7-2.94a34 34 0 0 0 8.53-9.87q3.82-6.3 3.82-15.7 0-12.65-8.64-18.82t-26.93-6.17c-2 0-3.27.29-3.94.88s-1.16 1.86-1.35 3.82q-1.19 14.7-2.35 45.86Zm-.59 30.87-1.18 37.34q0 8.52 5.76 12t19.23 3.53q12.93 0 20-6.76t7.06-19.11a23.92 23.92 0 0 0-6.47-16.93q-6.46-6.89-18.82-10.12Zm119.65 82.91 2.35-22.93q11.18-1.77 15.29-7.24t4.11-18.34V78q0-9.1-2.05-12.23c-1.38-2-4.22-3.05-8.53-3.05a39.7 39.7 0 0 0-5 .29 29.58 29.58 0 0 1-3.23.29l-2.06-3.23 2.35-19.4 42.93.29q8.52 0 27.16-.76t24.87-1l-2.65 24.1q-10.29 1.21-15.12 2.96t-6.58 5.29c-1.18 2.36-2 5.88-2.35 10.59q-2.94 42.33-2.94 105 0 9.41 2.94 12.47t12.05 3.11q12.93 0 19.4-3.53T684 186q3.12-9.53 4.88-29.22l30.28-3.23 2.65 3.52q-.88 5.88-3.24 27.17t-4.11 44.57l-3.53 3.82-34.28-1.3q-26.28-1.05-50.1-1.05-17.34 0-33.8 1.17t-21.17 1.8Zm156.69-.89 2.35-21.46q12.36-2.64 16.29-7.35t4-17.05L751.2 78q0-9.1-2.23-12.23c-1.45-2-4.23-3.05-8.35-3.05a73.7 73.7 0 0 0-9.11.58l-2.06-3.23 2.35-19.4 43.51.29q8.24 0 26.17-.88l19.4-.88-1.77 22.34Q808.24 63 804.83 66t-3.94 11.46q-3.24 62.63-3.24 110.84 0 12.35 2.06 16.28t8.53 4a58.42 58.42 0 0 0 11.17-.88l1.76 2.35-2.64 21.46q-28.81-1.17-45.87-1.17-14.1-.03-44.39 2.02ZM922 233.54q-27 0-46.57-11.17a73.71 73.71 0 0 1-30-32.22q-10.47-21-10.47-50.1 0-31.74 12.35-54.85a84.58 84.58 0 0 1 35.45-35.4q23.06-12.34 55.09-12.35a191.22 191.22 0 0 1 24.11 1.65q12.95 1.59 22.34 3.35c6.28 1.18 10.29 2 12.06 2.35l2.06 4.71q-.6 2.06-2.06 10t-3.24 21q-1.76 13.11-2.64 27.81l-35.87 2.06c0-.78.1-2.65.3-5.59s.29-6.36.29-10.28q0-12.36-6.47-17.94T928.12 71q-20 0-29.22 13.93t-9.29 44.86q0 34.69 10.29 52.63t30 17.93q13.82 0 21.16-8.82t10-29.1l35.86-2.43q-.88 5.29-2.77 23.52t-2.23 34.69l-3.24 4.12q0 .28-10.29 3.23a240.44 240.44 0 0 1-25.1 5.47 190.85 190.85 0 0 1-31.29 2.51ZM236.82 111.2a71.49 71.49 0 0 0-96.61 24.4 79 79 0 0 1-69.4 116.56c-1.35 0-2.71-.06-4.07-.13A135.49 135.49 0 0 0 270 154.37a71.28 71.28 0 0 0-33.18-43.17ZM135.87 0a135.1 135.1 0 0 0-50.7 9.84 71.46 71.46 0 0 0 48.62 121.84A79 79 0 0 1 271.33 137v-1.54A135.49 135.49 0 0 0 135.87 0Zm-29.43 235.07a71.59 71.59 0 0 0 27.16-95.87A79 79 0 0 1 69.5 17.38a135.44 135.44 0 0 0-17 224.87 71.29 71.29 0 0 0 54-7.18Z" style="fill:#ffe6a1" transform="translate(-0.37 0)"></path></svg>