<svg xmlns="http://www.w3.org/2000/svg" data-name="Layer 1" viewBox="0 0 996.75 184.14"><path d="M180 136.05v6.24a45.17 45.17 0 0 1-2 12.84 36.83 36.83 0 0 1-6.76 12.74A37.39 37.39 0 0 1 159 177.7q-7.47 3.93-18.37 3.94H17.39a16.84 16.84 0 0 1-6.5-1.23 16.25 16.25 0 0 1-5.21-3.48 15.94 15.94 0 0 1-3.43-5.17 16.8 16.8 0 0 1-1.25-6.5V18.88a16.84 16.84 0 0 1 1.23-6.4 17.45 17.45 0 0 1 3.45-5.22 15.9 15.9 0 0 1 5.21-3.53 17 17 0 0 1 6.5-1.22h108.68a43.1 43.1 0 0 1 12.84 2.14 38.73 38.73 0 0 1 12.79 6.81 37 37 0 0 1 9.88 12.18q3.93 7.47 3.94 18.37v6.08a67.22 67.22 0 0 1-2.87 18.58 60.74 60.74 0 0 1-9.26 18.77 57.16 57.16 0 0 1 10.33 8.14 51.2 51.2 0 0 1 8.4 11 59 59 0 0 1 5.78 14.12 66.91 66.91 0 0 1 2.1 17.35Zm-32.44 6v-6a30.4 30.4 0 0 0-2.05-11.46 25.58 25.58 0 0 0-5.58-8.65 24.58 24.58 0 0 0-8.75-5.58 32.31 32.31 0 0 0-11.51-1.94H46.45v-32.7H105a32.13 32.13 0 0 0 11.51-1.94 24.23 24.23 0 0 0 14.33-14.22 32.65 32.65 0 0 0 1.89-11.47V42q0-7-6.7-7H33.51v114.15h107.14c.58 0 1.3 0 2.15-.11a5.62 5.62 0 0 0 2.25-.76 5.23 5.23 0 0 0 1.74-2.1 9.42 9.42 0 0 0 .77-4.15ZM396.22 75v34.23a78.52 78.52 0 0 1-5.63 30.08A71.25 71.25 0 0 1 375 163a69.93 69.93 0 0 1-23.69 15.56 78.23 78.23 0 0 1-29.78 5.57h-43.96a78.93 78.93 0 0 1-29.88-5.57A70.34 70.34 0 0 1 224 163a71.86 71.86 0 0 1-15.66-23.74 77.79 77.79 0 0 1-5.68-30.08V75a78.16 78.16 0 0 1 5.68-30A71.24 71.24 0 0 1 224 21.18a72.31 72.31 0 0 1 23.69-15.55A78 78 0 0 1 277.57 0h43.95a77.31 77.31 0 0 1 29.78 5.63A71.88 71.88 0 0 1 375 21.18a70.65 70.65 0 0 1 15.6 23.74 78.9 78.9 0 0 1 5.63 30Zm-32.49 34.23V75a48.19 48.19 0 0 0-3-17.45 38.77 38.77 0 0 0-8.65-13.36 39.18 39.18 0 0 0-13.35-8.59 46.63 46.63 0 0 0-17.19-3.07h-43.97a46.7 46.7 0 0 0-17.3 3.07 39.61 39.61 0 0 0-13.45 8.59 37.65 37.65 0 0 0-8.65 13.36A47.35 47.35 0 0 0 235.1 75v34.23a47.33 47.33 0 0 0 3.07 17.44 37.65 37.65 0 0 0 8.65 13.33 39.46 39.46 0 0 0 13.45 8.59 46.7 46.7 0 0 0 17.3 3.07h43.69a46.7 46.7 0 0 0 17.3-3.07A39.56 39.56 0 0 0 352 140a38.46 38.46 0 0 0 8.7-13.36 48.17 48.17 0 0 0 3-17.44Zm236.74 19.75a56.54 56.54 0 0 1-2.47 17.25 52.19 52.19 0 0 1-6.44 13.56 43.51 43.51 0 0 1-9.37 10 56.64 56.64 0 0 1-11.1 6.75 57.66 57.66 0 0 1-11.66 3.89 55.41 55.41 0 0 1-11.21 1.23H422.93v-32.51h125.3q9.36 0 14.53-5.48t5.24-14.73a23.59 23.59 0 0 0-1.38-8.24 18.55 18.55 0 0 0-3.94-6.5 17.18 17.18 0 0 0-6.24-4.25 21.19 21.19 0 0 0-8.19-1.53h-74.7a57.66 57.66 0 0 1-17-2.82 51.2 51.2 0 0 1-16.93-9 50 50 0 0 1-13-16.32q-5.16-10.14-5.17-24.77t5.17-24.66a49.77 49.77 0 0 1 29.92-25.53 57.63 57.63 0 0 1 17-2.81H584.1V35H473.53q-9.25 0-14.43 5.62t-5.17 14.84q0 9.36 5.17 14.79t14.43 5.47h75a55.27 55.27 0 0 1 11.1 1.44 54.33 54.33 0 0 1 11.72 4 57.4 57.4 0 0 1 11.05 7 45.86 45.86 0 0 1 9.26 10 48.69 48.69 0 0 1 6.45 13.51 57.39 57.39 0 0 1 2.36 17.27Zm187.32 20.21v32.49H670.62a47.92 47.92 0 0 1-9.67-1.08 52.86 52.86 0 0 1-10.23-3.27 46.36 46.36 0 0 1-9.68-5.84 39.14 39.14 0 0 1-8.18-8.59 41.91 41.91 0 0 1-5.68-11.77 49.22 49.22 0 0 1-2.15-15v-88a48.13 48.13 0 0 1 1.07-9.67 50.88 50.88 0 0 1 3.33-10.23 46.68 46.68 0 0 1 5.83-9.67 40.21 40.21 0 0 1 8.7-8.19 42.51 42.51 0 0 1 11.67-5.68 48.71 48.71 0 0 1 15-2.14h117.16V35H670.62q-6.35 0-9.72 3.37t-3.38 10v87.7q0 6.24 3.43 9.67t9.67 3.43ZM851.23 2.51v73.21h114V2.51h32.49v179.13h-32.44v-73.22h-114v73.22h-32.49V2.51Z" style="fill:#fff" transform="translate(-1.02 0)"></path></svg>