<svg xmlns="http://www.w3.org/2000/svg" data-name="Layer 1" viewBox="0 0 995.88 209.36"><path d="M1.45 0h107.67q22.44 0 40.26 4.9t30 14.36a64.11 64.11 0 0 1 18.84 23q6.57 13.64 6.58 31 0 23.93-12 40.37t-34.39 25.12l49.35 70.59h-49.29l-44-62.81H44.82v62.81H1.45Zm107.67 22.43h-64.3v101.69h64.3q23.63 0 36.49-12.38t12.86-38.46q0-26-12.86-38.47t-36.49-12.38ZM284.08 0v209.36h-43.36V0ZM326 0h98.69q26.93 0 48.87 6.7t37.69 19.92a89.81 89.81 0 0 1 24.4 32.72q8.67 19.62 8.68 45.34T535.61 150a89.69 89.69 0 0 1-24.4 32.78q-15.73 13.15-37.69 19.86t-48.87 6.76H326Zm98.69 22.43h-55.37v164.5h55.33a85.56 85.56 0 0 0 28.54-4.67 59.13 59.13 0 0 0 23.2-14.65q9.87-10 15.68-25.55t5.86-37.38q0-21.84-5.86-37.39t-15.68-25.6A60.05 60.05 0 0 0 453.19 27a86.57 86.57 0 0 0-28.54-4.61Zm334.92 0H620.49v68.79h109.17v22.43H620.49v73.28h139.08v22.43H577.13V0h182.44ZM992.85 0l-84.64 102 89.13 107.37h-50.85l-63.7-76.57-63.41 76.57h-50.84L857.37 102 773 0h50.85l58.92 71.48L942 0Z" style="fill:#adc6db" transform="translate(-1.45 0)"></path></svg>