<?xml version="1.0" encoding="UTF-8"?> <svg xmlns="http://www.w3.org/2000/svg" viewBox="0 0 1000 386"><g transform="matrix(1,0,0,1,-0.6060462493566092,-0.6043946733723544)"><svg xmlns="http://www.w3.org/2000/svg" xmlns:xlink="http://www.w3.org/1999/xlink" width="1000" height="386" data-background-color="#0080ff" viewBox="0 0 396 153"><g transform="matrix(1,0,0,1,0.2399943147452177,0.23956576431598364)"><svg width="395.52" height="152.521" viewBox="0 0 395.52 152.521"><g><svg width="395.52" height="152.521" viewBox="0 0 395.52 152.521"><g transform="matrix(1,0,0,1,0,94.26401554908158)"><svg width="395.52" height="58.257" viewBox="0 0 395.52 58.257"><g><svg width="395.52" height="58.257" viewBox="0 0 395.52 58.257"><g><svg width="395.52" height="58.257" viewBox="0 0 395.52 58.257"><g transform="matrix(1,0,0,1,0,0)"><svg width="395.52" height="58.257" data-palette-color="#000000" viewBox="4.5 -33.95 233.54 34.4"><path d="M40.05-33.3q2.75 0 2.75 2.25 0 .7-.3 1.75l-1.2 4.05q-.55 1.85-1.35 2.6t-2.3.75q-1.25 0-1.92-.65-.68-.65-1.28-2.05l-.85-2.05q-.4-.95-.85-1.3-.45-.35-1.4-.35H30.2L23.85-5.95q-.15.65-.15 1.15 0 .6.18 1 .17.4.52.85.45.7.45 1.15 0 .1-.1.5-.25.65-.97.95-.73.3-2.08.3H9.95Q8.9-.05 8.33-.4q-.58-.35-.58-1 0-.3.15-.6.2-.45.48-.68.27-.22.82-.57.75-.45 1.25-1t.85-1.7l6.3-22.35h-1.15q-1.1 0-1.8.35t-1.5 1.3L11.5-24.6q-1.15 1.35-2.22 2.02-1.08.68-2.33.68-1.15 0-1.8-.6-.65-.6-.65-1.65 0-.5.15-1.1l1.3-4.55q.4-1.4.9-2.13.5-.72 1.43-1.05.92-.32 2.62-.32h29.15Zm36.1 10.15q-.8 2.9-3 4.52-2.2 1.63-5.55 2.03 2.4.2 3.6 1.4 1.2 1.2 1.2 3.15 0 .75-.25 1.85l-.55 2.45q-.1.5-.1.7 0 .65.3.97.3.33.85.33 1.05 0 1.52.3.48.3.33 1.1-.2 1.15-1.2 2.25T70.47-.28q-1.82.73-4.42.73-3.3 0-5.25-1.48-1.95-1.47-1.95-4.22 0-1.05.3-2.25l.8-3.2q.2-.65.2-1.35 0-1.15-.78-1.65-.77-.5-2.47-.5H55l-2.3 8.3q-.1.3-.1.75 0 .7.35 1.2t.95 1.05q.45.35.7.67.25.33.25.68 0 .85-.8 1.2T51.7 0H39.15q-1.3 0-1.95-.48-.65-.47-.45-1.32.1-.45.37-.73.28-.27.83-.62.85-.5 1.35-1.05.5-.55.8-1.7l6.1-21.55q.2-.65.2-1.25 0-.55-.18-.93-.17-.37-.47-.87-.45-.65-.45-1.05 0-.15.1-.55.2-.65.87-.92.68-.28 2.08-.28H65.1q3.45 0 6.02 1.05 2.58 1.05 3.95 2.87 1.38 1.83 1.38 4.13 0 1.05-.3 2.1Zm-12.8-.5q.25-1.15.25-1.75 0-2.65-2.9-2.65h-2.1l-2.2 8.85h2.1q1.95 0 3.07-.95 1.13-.95 1.78-3.5ZM98.1-33.3q1.05 0 1.62.32.58.33.58.93 0 .25-.15.65-.15.35-.43.62-.27.28-.5.4-.22.13-.32.23-.8.45-1.3 1t-.85 1.7L90.7-5.9q-.2.65-.2 1.25t.17 1q.18.4.53.85.45.65.45 1.05 0 .1-.1.5-.2.7-.9.97-.7.28-2.1.28H76.8q-1.05 0-1.63-.35-.57-.35-.57-.95 0-.3.15-.65.2-.55.65-.85.45-.3.55-.35.8-.5 1.3-1.02.5-.53.85-1.73l6.1-21.55q.2-.65.2-1.25 0-.55-.18-.93-.17-.37-.47-.87-.45-.65-.45-1.05 0-.15.1-.55.2-.65.87-.92.68-.28 2.08-.28H98.1ZM113.49.3q-4.2 0-7.55-1.55-3.35-1.55-5.32-4.58-1.98-3.02-1.98-7.32 0-3 1.05-6.5 2.3-7.5 6.95-10.83 4.65-3.32 9.95-3.32 2.85 0 5.05.85 2.2.85 4.05 2.45l1.35-1.05q1.35-1.05 2.28-1.45.92-.4 2.07-.4 1.25 0 2 .55t.75 1.6q0 .55-.2 1.1l-2.8 7.8q-.45 1.35-1.07 1.9-.63.55-1.88.55-1.3 0-2.12-.93-.83-.92-1.88-3.17-1.2-2.35-1.95-3.1t-2.2-.75q-2.05 0-3.95 2.52-1.9 2.53-3.45 7.58-1.3 4.25-1.3 7.1 0 2.5.95 3.72.95 1.23 2.55 1.23 2.35 0 3.88-1.05 1.52-1.05 3.12-2.85 1-1.1 1.63-1.63.62-.52 1.32-.52.9 0 1.9.9 1 .9.95 1.8.05 1.1-1.77 3.4-1.83 2.3-5.05 4.12Q117.59.3 113.49.3Zm35.4-33.9q2.8 0 5.18.67 2.37.68 4.82 2.13l1.15-.95q1.2-.95 1.98-1.3.77-.35 1.77-.35 1.2 0 1.9.52.7.53.7 1.53 0 .4-.15.85l-2.1 6.9q-.35 1.2-.87 1.7-.53.5-1.58.5-1.1 0-1.92-.68-.83-.67-2.58-2.77-1.75-2-3.17-2.83-1.43-.82-2.93-.82-1.1 0-1.85.72-.75.73-.75 1.78 0 1.2 1.2 2.22 1.2 1.03 3.75 2.58 2.6 1.55 4.3 2.8 1.7 1.25 2.9 3.1t1.2 4.25q0 1.55-.5 3.1-1.2 4-4.65 6.07Q153.24.2 148.64.2q-3.45 0-5.8-.8-2.35-.8-4.8-2.7l-1.8 1.5q-1.25 1.05-2.05 1.42-.8.38-1.8.38-1.15 0-1.82-.55-.68-.55-.68-1.5 0-.5.2-1.05l2.45-7.45q.4-1.3 1.1-1.85.7-.55 1.8-.55 1.15 0 2.08.8.92.8 2.42 2.9 1.6 2.3 2.98 3.2 1.37.9 3.27.9 1.35 0 2.08-.43.72-.42 1.02-1.37.1-.25.1-.75 0-1.2-1.15-2.2-1.15-1-3.55-2.4-2.55-1.55-4.15-2.78-1.6-1.22-2.77-3.07-1.18-1.85-1.18-4.35 0-1.75.55-3.45 1.05-3.45 4.3-5.55 3.25-2.1 7.45-2.1Zm49.2 10.7-4.9 17q-.2.65-.2 1.3 0 .55.15.92.15.38.32.6.18.23.23.33.5.5.5 1 0 .1-.1.5-.2.7-.88.97-.67.28-2.07.28h-11.85q-1.05 0-1.63-.35-.57-.35-.57-.95 0-.3.15-.65.15-.4.42-.63.28-.22.78-.52.8-.45 1.3-1t.85-1.8l1.3-4.3h-7.8l-1.35 2.85q-.85 1.85-.85 2.9 0 .6.2.97.2.38.6.78.35.4.47.68.13.27.03.72-.2.75-.83 1.02-.62.28-1.97.28h-7.45q-1.15 0-1.75-.43-.6-.42-.6-1.12 0-.8.57-1.28.58-.47 1.73-1.02 1.5-.75 2.4-1.48.9-.72 1.55-2.02l8.9-18.45q2.05-4.3 4.82-6.22 2.78-1.93 7.33-1.93 5.1 0 7.9 2.07 2.8 2.08 2.8 5.78 0 1.55-.5 3.2Zm-21.7 7.7h7l2.65-8.8q.2-.6.2-1.25 0-.95-.53-1.43-.52-.47-1.47-.47-1.2 0-2.05.7-.85.7-1.7 2.5l-4.1 8.75Zm59.6-18.1q2.05 0 2.05 1.3 0 .35-.05.5-.15.5-.45.77-.3.28-.85.63-.75.45-1.25 1t-.85 1.7l-6.2 22.2q-.85 3-2.13 4.2-1.27 1.2-3.52 1.2-2 0-3.33-1.18-1.32-1.17-2.47-3.62l-7.55-15.9-4.2 14.6q-.15.65-.15 1.15 0 .65.22 1.07.23.43.63.88.55.65.55 1.1 0 .3-.05.45-.2.7-.9.97-.7.28-2.1.28h-5.45q-2.05 0-2.05-1.3 0-.35.05-.5.15-.5.45-.78.3-.27.85-.62.75-.45 1.25-1t.85-1.7l6.35-22.45-.8-1.65q-.5-1-.5-1.75 0-1.55 2-1.55h7.4q1.6 0 2.42.72.83.73 1.78 2.58l7.3 14.65 3.45-12.05q.15-.7.15-1.15 0-.65-.23-1.08-.22-.42-.62-.87-.55-.65-.55-1.1 0-.3.05-.45.2-.7.9-.97.7-.28 2.1-.28h5.45Z" class="wordmark-text-0" data-fill-palette-color="primary"></path></svg></g></svg></g></svg></g></svg></g><g transform="matrix(1,0,0,1,157.50451463070004,0)"><svg width="80.511" height="80.511" viewBox="0 0 80.511 80.511"><g><svg xmlns="http://www.w3.org/2000/svg" xmlns:xlink="http://www.w3.org/1999/xlink" xml:space="preserve" width="80.511" height="80.511" class="icon-icon-0" data-fill-palette-color="accent" viewBox="0 0 48 48"><g data-fill-palette-color="accent"><path d="M24 0C10.8 0 0 10.8 0 24s10.8 24 24 24 24-10.8 24-24S37.2 0 24 0zm0 2c7.5 0 14.1 3.8 18.1 9.5-4.7 2.1-8.9 5.9-12 10.7-.8-2.6-3.2-4.5-6-4.5s-5.3 1.9-6 4.5c-3.2-4.8-7.3-8.6-12-10.7C9.9 5.8 16.5 2 24 2zm0 26.3c-2.4 0-4.3-1.9-4.3-4.3s1.9-4.3 4.3-4.3 4.3 1.9 4.3 4.3-1.9 4.3-4.3 4.3zm0 2c.7 0 1.4-.1 2.1-.4-.9 2.3-1.6 4.7-2.1 7.2-.5-2.5-1.2-4.9-2.1-7.2.7.3 1.4.4 2.1.4zM2 24c0-3.9 1-7.6 2.9-10.8C15.3 17.7 22.7 30.9 23 46 11.3 45.4 2 35.8 2 24zm23 22c.3-15 7.6-28.3 18.1-32.8C45 16.4 46 20.1 46 24c0 11.8-9.3 21.4-21 22z" data-fill-palette-color="accent"></path></g></svg></g></svg></g></svg></g></svg></g></svg></g></svg> 